solid bcn3dplus_mk8_extruder_02
facet normal 0.7933533402912365 0.6087614290087192 -1.0330124256992431e-15
  outer loop
    vertex 88.68983439159493 193.1091000003032 47.88647761257386
    vertex 88.05415990120336 193.9375271250494 48.387065612573856
    vertex 88.68983439159493 193.1091000003032 48.387065612573856
  endloop
endfacet
facet normal 0.7933533402912365 0.6087614290087192 -1.0330124256992431e-15
  outer loop
    vertex 88.05415990120336 193.9375271250494 48.387065612573856
    vertex 88.68983439159493 193.1091000003032 47.88647761257386
    vertex 88.05415990120336 193.9375271250494 47.88647761257386
  endloop
endfacet
facet normal 0.9238795325113061 -0.3826834323650432 -3.1464856196261422e-15
  outer loop
    vertex 83.68025145439466 191.52321047246718 47.88647761257386
    vertex 83.84009213040207 191.90910000030314 55.88647761257387
    vertex 83.68025145439469 191.52321047246716 55.88647761257387
  endloop
endfacet
facet normal 0.9238795325113061 -0.3826834323650432 -3.1464856196261422e-15
  outer loop
    vertex 83.84009213040207 191.90910000030314 55.88647761257387
    vertex 83.68025145439466 191.52321047246718 47.88647761257386
    vertex 83.84009213040206 191.90910000030317 47.88647761257386
  endloop
endfacet
facet normal 0.9914448613738113 -0.1305261922200455 -2.1494485628086467e-15
  outer loop
    vertex 87.49774220220611 190.50031690947793 48.38647761257385
    vertex 87.57789001660225 191.10910000030316 55.886477612573856
    vertex 87.49774220220614 190.50031690947793 55.88647761257387
  endloop
endfacet
facet normal 0.9914448613738113 -0.1305261922200455 -2.1494485628086467e-15
  outer loop
    vertex 87.57789001660225 191.10910000030316 55.886477612573856
    vertex 87.49774220220611 190.50031690947793 48.38647761257385
    vertex 87.57789001660223 191.1091000003032 48.38647761257385
  endloop
endfacet
facet normal 0.9914448613738084 0.13052619222006737 -1.72920032944251e-15
  outer loop
    vertex 87.57789001660223 191.1091000003032 48.38647761257385
    vertex 87.49774220220611 191.7178830911285 55.886477612573856
    vertex 87.57789001660225 191.10910000030316 55.886477612573856
  endloop
endfacet
facet normal 0.9914448613738084 0.13052619222006737 -1.72920032944251e-15
  outer loop
    vertex 87.49774220220611 191.7178830911285 55.886477612573856
    vertex 87.57789001660223 191.1091000003032 48.38647761257385
    vertex 87.4977422022061 191.7178830911285 48.38647761257385
  endloop
endfacet
facet normal 0.9238795325112917 -0.3826834323650783 -2.4232154287510525e-15
  outer loop
    vertex 87.26276070011826 189.9330213802306 48.386477612573856
    vertex 87.49774220220614 190.50031690947793 55.88647761257387
    vertex 87.26276070011828 189.9330213802306 55.88647761257387
  endloop
endfacet
facet normal 0.9238795325112917 -0.3826834323650783 -2.4232154287510525e-15
  outer loop
    vertex 87.49774220220614 190.50031690947793 55.88647761257387
    vertex 87.26276070011826 189.9330213802306 48.386477612573856
    vertex 87.49774220220611 190.50031690947793 48.38647761257385
  endloop
endfacet
facet normal 0.3826834323650675 0.9238795325112962 7.387315813966197e-16
  outer loop
    vertex 85.83451586728245 193.38110942605206 48.386477612573856
    vertex 86.40181139652971 193.14612792396423 55.88647761257387
    vertex 86.4018113965297 193.14612792396426 48.386477612573856
  endloop
endfacet
facet normal 0.3826834323650675 0.9238795325112962 7.387315813966197e-16
  outer loop
    vertex 86.40181139652971 193.14612792396423 55.88647761257387
    vertex 85.83451586728245 193.38110942605206 48.386477612573856
    vertex 85.83451586728246 193.38110942605206 55.88647761257387
  endloop
endfacet
facet normal 1.9560588003233414e-15 -1.609823385706477e-15 1.0
  outer loop
    vertex 83.56250644153354 192.77232633522672 55.88647761257387
    vertex 84.81162230429314 192.65458132236566 55.88647761257387
    vertex 85.22573277645718 192.70910000030315 55.88647761257387
  endloop
endfacet
facet normal 1.9560588003233414e-15 -1.609823385706477e-15 1.0
  outer loop
    vertex 84.81162230429314 192.65458132236566 55.88647761257387
    vertex 83.56250644153354 192.77232633522672 55.88647761257387
    vertex 83.18870485279609 192.28517862037572 55.88647761257387
  endloop
endfacet
facet normal 1.9560588003233414e-15 -1.609823385706477e-15 1.0
  outer loop
    vertex 84.81162230429314 192.65458132236566 55.88647761257387
    vertex 83.18870485279609 192.28517862037572 55.88647761257387
    vertex 84.42573277645718 192.49474064635822 55.88647761257387
  endloop
endfacet
facet normal 1.9560588003233414e-15 -1.609823385706477e-15 1.0
  outer loop
    vertex 84.42573277645718 192.49474064635822 55.88647761257387
    vertex 83.18870485279609 192.28517862037572 55.88647761257387
    vertex 84.0943619265587 192.2404708502016 55.88647761257387
  endloop
endfacet
facet normal 1.9560588003233414e-15 -1.609823385706477e-15 1.0
  outer loop
    vertex 84.0943619265587 192.2404708502016 55.88647761257387
    vertex 83.18870485279609 192.28517862037572 55.88647761257387
    vertex 82.95372335070823 191.71788309112839 55.88647761257387
  endloop
endfacet
facet normal 1.9560588003233414e-15 -1.609823385706477e-15 1.0
  outer loop
    vertex 84.0943619265587 192.2404708502016 55.88647761257387
    vertex 82.95372335070823 191.71788309112839 55.88647761257387
    vertex 83.84009213040207 191.90910000030314 55.88647761257387
  endloop
endfacet
facet normal 1.9560588003233414e-15 -1.609823385706477e-15 1.0
  outer loop
    vertex 83.84009213040207 191.90910000030314 55.88647761257387
    vertex 82.95372335070823 191.71788309112839 55.88647761257387
    vertex 83.68025145439469 191.52321047246716 55.88647761257387
  endloop
endfacet
facet normal 1.9560588003233414e-15 -1.609823385706477e-15 1.0
  outer loop
    vertex 83.68025145439469 191.52321047246716 55.88647761257387
    vertex 82.95372335070823 191.71788309112839 55.88647761257387
    vertex 82.87357553631212 191.10910000030316 55.88647761257387
  endloop
endfacet
facet normal 1.9560588003233414e-15 -1.609823385706477e-15 1.0
  outer loop
    vertex 83.68025145439469 191.52321047246716 55.88647761257387
    vertex 82.87357553631212 191.10910000030316 55.88647761257387
    vertex 83.62573277645718 191.10910000030316 55.88647761257387
  endloop
endfacet
facet normal 1.9560588003233414e-15 -1.609823385706477e-15 1.0
  outer loop
    vertex 83.62573277645718 191.10910000030316 55.88647761257387
    vertex 82.87357553631212 191.10910000030316 55.88647761257387
    vertex 82.95372335070823 190.50031690947785 55.88647761257387
  endloop
endfacet
facet normal 1.9560588003233414e-15 -1.609823385706477e-15 1.0
  outer loop
    vertex 83.62573277645718 191.10910000030316 55.88647761257387
    vertex 82.95372335070823 190.50031690947785 55.88647761257387
    vertex 83.68025145439469 190.6949895281391 55.88647761257387
  endloop
endfacet
facet normal 1.9560588003233414e-15 -1.609823385706477e-15 1.0
  outer loop
    vertex 83.68025145439469 190.6949895281391 55.88647761257387
    vertex 82.95372335070823 190.50031690947785 55.88647761257387
    vertex 83.84009213040208 190.30910000030315 55.88647761257387
  endloop
endfacet
facet normal 1.9560588003233414e-15 -1.609823385706477e-15 1.0
  outer loop
    vertex 83.84009213040208 190.30910000030315 55.88647761257387
    vertex 82.95372335070823 190.50031690947785 55.88647761257387
    vertex 83.18870485279609 189.9330213802305 55.88647761257387
  endloop
endfacet
facet normal 1.9560588003233414e-15 -1.609823385706477e-15 1.0
  outer loop
    vertex 83.84009213040208 190.30910000030315 55.88647761257387
    vertex 83.18870485279609 189.9330213802305 55.88647761257387
    vertex 84.09436192655872 189.97772915040468 55.88647761257387
  endloop
endfacet
facet normal 1.9560588003233414e-15 -1.609823385706477e-15 1.0
  outer loop
    vertex 84.09436192655872 189.97772915040468 55.88647761257387
    vertex 83.18870485279609 189.9330213802305 55.88647761257387
    vertex 84.4257327764572 189.72345935424806 55.886477612573856
  endloop
endfacet
facet normal 1.9560588003233414e-15 -1.609823385706477e-15 1.0
  outer loop
    vertex 84.4257327764572 189.72345935424806 55.886477612573856
    vertex 83.18870485279609 189.9330213802305 55.88647761257387
    vertex 83.56250644153354 189.44587366537957 55.88647761257387
  endloop
endfacet
facet normal 1.9560588003233414e-15 -1.609823385706477e-15 1.0
  outer loop
    vertex 84.4257327764572 189.72345935424806 55.886477612573856
    vertex 83.56250644153354 189.44587366537957 55.88647761257387
    vertex 84.81162230429315 189.56361867824063 55.886477612573856
  endloop
endfacet
facet normal 1.9560588003233414e-15 -1.609823385706477e-15 1.0
  outer loop
    vertex 84.81162230429315 189.56361867824063 55.886477612573856
    vertex 83.56250644153354 189.44587366537957 55.88647761257387
    vertex 85.22573277645719 189.50910000030316 55.886477612573856
  endloop
endfacet
facet normal 1.9560588003233414e-15 -1.609823385706477e-15 1.0
  outer loop
    vertex 85.22573277645719 189.50910000030316 55.886477612573856
    vertex 83.56250644153354 189.44587366537957 55.88647761257387
    vertex 86.88895911138083 189.4458736653796 55.88647761257387
  endloop
endfacet
facet normal 1.9560588003233414e-15 -1.609823385706477e-15 1.0
  outer loop
    vertex 86.88895911138083 189.4458736653796 55.88647761257387
    vertex 83.56250644153354 189.44587366537957 55.88647761257387
    vertex 86.40181139652972 189.0720720766421 55.88647761257387
  endloop
endfacet
facet normal 1.9560588003233414e-15 -1.609823385706477e-15 1.0
  outer loop
    vertex 86.40181139652972 189.0720720766421 55.88647761257387
    vertex 83.56250644153354 189.44587366537957 55.88647761257387
    vertex 84.04965415638465 189.07207207664206 55.88647761257387
  endloop
endfacet
facet normal 1.9560588003233414e-15 -1.609823385706477e-15 1.0
  outer loop
    vertex 86.40181139652972 189.0720720766421 55.88647761257387
    vertex 84.04965415638465 189.07207207664206 55.88647761257387
    vertex 85.83451586728248 188.83709057455425 55.88647761257387
  endloop
endfacet
facet normal 1.9560588003233414e-15 -1.609823385706477e-15 1.0
  outer loop
    vertex 85.83451586728248 188.83709057455425 55.88647761257387
    vertex 84.04965415638465 189.07207207664206 55.88647761257387
    vertex 84.6169496856319 188.83709057455425 55.88647761257387
  endloop
endfacet
facet normal 1.9560588003233414e-15 -1.609823385706477e-15 1.0
  outer loop
    vertex 85.83451586728248 188.83709057455425 55.88647761257387
    vertex 84.6169496856319 188.83709057455425 55.88647761257387
    vertex 85.22573277645719 188.75694276015807 55.88647761257387
  endloop
endfacet
facet normal 1.9560588003233414e-15 -1.609823385706477e-15 1.0
  outer loop
    vertex 84.6169496856319 193.38110942605206 55.88647761257387
    vertex 85.83451586728246 193.38110942605206 55.88647761257387
    vertex 85.22573277645718 193.46125724044822 55.88647761257387
  endloop
endfacet
facet normal 1.9560588003233414e-15 -1.609823385706477e-15 1.0
  outer loop
    vertex 85.83451586728246 193.38110942605206 55.88647761257387
    vertex 84.6169496856319 193.38110942605206 55.88647761257387
    vertex 84.04965415638465 193.14612792396423 55.88647761257387
  endloop
endfacet
facet normal 1.9560588003233414e-15 -1.609823385706477e-15 1.0
  outer loop
    vertex 85.83451586728246 193.38110942605206 55.88647761257387
    vertex 84.04965415638465 193.14612792396423 55.88647761257387
    vertex 86.40181139652971 193.14612792396423 55.88647761257387
  endloop
endfacet
facet normal 1.9560588003233414e-15 -1.609823385706477e-15 1.0
  outer loop
    vertex 86.40181139652971 193.14612792396423 55.88647761257387
    vertex 84.04965415638465 193.14612792396423 55.88647761257387
    vertex 83.56250644153354 192.77232633522672 55.88647761257387
  endloop
endfacet
facet normal 1.9560588003233414e-15 -1.609823385706477e-15 1.0
  outer loop
    vertex 86.40181139652971 193.14612792396423 55.88647761257387
    vertex 83.56250644153354 192.77232633522672 55.88647761257387
    vertex 86.88895911138081 192.77232633522675 55.88647761257387
  endloop
endfacet
facet normal 1.9560588003233414e-15 -1.609823385706477e-15 1.0
  outer loop
    vertex 86.88895911138081 192.77232633522675 55.88647761257387
    vertex 83.56250644153354 192.77232633522672 55.88647761257387
    vertex 85.22573277645718 192.70910000030315 55.88647761257387
  endloop
endfacet
facet normal 1.9560588003233414e-15 -1.609823385706477e-15 1.0
  outer loop
    vertex 86.88895911138081 192.77232633522675 55.88647761257387
    vertex 85.22573277645718 192.70910000030315 55.88647761257387
    vertex 85.6398432486212 192.65458132236566 55.88647761257387
  endloop
endfacet
facet normal 1.9560588003233414e-15 -1.609823385706477e-15 1.0
  outer loop
    vertex 86.88895911138081 192.77232633522675 55.88647761257387
    vertex 85.6398432486212 192.65458132236566 55.88647761257387
    vertex 87.2627607001183 192.28517862037575 55.886477612573856
  endloop
endfacet
facet normal 1.9560588003233414e-15 -1.609823385706477e-15 1.0
  outer loop
    vertex 87.2627607001183 192.28517862037575 55.886477612573856
    vertex 85.6398432486212 192.65458132236566 55.88647761257387
    vertex 86.02573277645718 192.49474064635822 55.88647761257387
  endloop
endfacet
facet normal 1.9560588003233414e-15 -1.609823385706477e-15 1.0
  outer loop
    vertex 87.2627607001183 192.28517862037575 55.886477612573856
    vertex 86.02573277645718 192.49474064635822 55.88647761257387
    vertex 86.35710362635565 192.2404708502016 55.88647761257387
  endloop
endfacet
facet normal 1.9560588003233414e-15 -1.609823385706477e-15 1.0
  outer loop
    vertex 87.2627607001183 192.28517862037575 55.886477612573856
    vertex 86.35710362635565 192.2404708502016 55.88647761257387
    vertex 87.49774220220611 191.7178830911285 55.886477612573856
  endloop
endfacet
facet normal 1.9560588003233414e-15 -1.609823385706477e-15 1.0
  outer loop
    vertex 87.49774220220611 191.7178830911285 55.886477612573856
    vertex 86.35710362635565 192.2404708502016 55.88647761257387
    vertex 86.61137342251229 191.90910000030314 55.886477612573856
  endloop
endfacet
facet normal 1.9560588003233414e-15 -1.609823385706477e-15 1.0
  outer loop
    vertex 87.49774220220611 191.7178830911285 55.886477612573856
    vertex 86.61137342251229 191.90910000030314 55.886477612573856
    vertex 86.77121409851969 191.5232104724672 55.886477612573856
  endloop
endfacet
facet normal 1.9560588003233414e-15 -1.609823385706477e-15 1.0
  outer loop
    vertex 87.49774220220611 191.7178830911285 55.886477612573856
    vertex 86.77121409851969 191.5232104724672 55.886477612573856
    vertex 87.57789001660225 191.10910000030316 55.886477612573856
  endloop
endfacet
facet normal 1.9560588003233414e-15 -1.609823385706477e-15 1.0
  outer loop
    vertex 87.57789001660225 191.10910000030316 55.886477612573856
    vertex 86.77121409851969 191.5232104724672 55.886477612573856
    vertex 86.82573277645719 191.10910000030316 55.886477612573856
  endloop
endfacet
facet normal 1.9560588003233414e-15 -1.609823385706477e-15 1.0
  outer loop
    vertex 87.57789001660225 191.10910000030316 55.886477612573856
    vertex 86.82573277645719 191.10910000030316 55.886477612573856
    vertex 86.77121409851969 190.6949895281391 55.88647761257387
  endloop
endfacet
facet normal 1.9560588003233414e-15 -1.609823385706477e-15 1.0
  outer loop
    vertex 87.57789001660225 191.10910000030316 55.886477612573856
    vertex 86.77121409851969 190.6949895281391 55.88647761257387
    vertex 87.49774220220614 190.50031690947793 55.88647761257387
  endloop
endfacet
facet normal 1.9560588003233414e-15 -1.609823385706477e-15 1.0
  outer loop
    vertex 87.49774220220614 190.50031690947793 55.88647761257387
    vertex 86.77121409851969 190.6949895281391 55.88647761257387
    vertex 86.6113734225123 190.30910000030315 55.88647761257387
  endloop
endfacet
facet normal 1.9560588003233414e-15 -1.609823385706477e-15 1.0
  outer loop
    vertex 87.49774220220614 190.50031690947793 55.88647761257387
    vertex 86.6113734225123 190.30910000030315 55.88647761257387
    vertex 87.26276070011828 189.9330213802306 55.88647761257387
  endloop
endfacet
facet normal 1.9560588003233414e-15 -1.609823385706477e-15 1.0
  outer loop
    vertex 87.26276070011828 189.9330213802306 55.88647761257387
    vertex 86.6113734225123 190.30910000030315 55.88647761257387
    vertex 86.35710362635565 189.9777291504047 55.88647761257387
  endloop
endfacet
facet normal 1.9560588003233414e-15 -1.609823385706477e-15 1.0
  outer loop
    vertex 87.26276070011828 189.9330213802306 55.88647761257387
    vertex 86.35710362635565 189.9777291504047 55.88647761257387
    vertex 86.02573277645719 189.72345935424806 55.88647761257387
  endloop
endfacet
facet normal 1.9560588003233414e-15 -1.609823385706477e-15 1.0
  outer loop
    vertex 87.26276070011828 189.9330213802306 55.88647761257387
    vertex 86.02573277645719 189.72345935424806 55.88647761257387
    vertex 86.88895911138083 189.4458736653796 55.88647761257387
  endloop
endfacet
facet normal 1.9560588003233414e-15 -1.609823385706477e-15 1.0
  outer loop
    vertex 86.88895911138083 189.4458736653796 55.88647761257387
    vertex 86.02573277645719 189.72345935424806 55.88647761257387
    vertex 85.63984324862122 189.56361867824063 55.88647761257387
  endloop
endfacet
facet normal 1.9560588003233414e-15 -1.609823385706477e-15 1.0
  outer loop
    vertex 86.88895911138083 189.4458736653796 55.88647761257387
    vertex 85.63984324862122 189.56361867824063 55.88647761257387
    vertex 85.22573277645719 189.50910000030316 55.886477612573856
  endloop
endfacet
facet normal 0.13052619222010822 0.991444861373803 1.3407342165132258e-15
  outer loop
    vertex 85.22573277645716 193.46125724044825 48.386477612573856
    vertex 85.83451586728246 193.38110942605206 55.88647761257387
    vertex 85.83451586728245 193.38110942605206 48.386477612573856
  endloop
endfacet
facet normal 0.13052619222010822 0.991444861373803 1.3407342165132258e-15
  outer loop
    vertex 85.83451586728246 193.38110942605206 55.88647761257387
    vertex 85.22573277645716 193.46125724044825 48.386477612573856
    vertex 85.22573277645718 193.46125724044822 55.88647761257387
  endloop
endfacet
facet normal -0.6087614290087073 0.7933533402912456 2.4679319108390907e-15
  outer loop
    vertex 83.56250644153353 192.77232633522675 48.386477612573856
    vertex 84.04965415638465 193.14612792396423 55.88647761257387
    vertex 84.04965415638463 193.14612792396426 48.386477612573856
  endloop
endfacet
facet normal -0.6087614290087073 0.7933533402912456 2.4679319108390907e-15
  outer loop
    vertex 84.04965415638465 193.14612792396423 55.88647761257387
    vertex 83.56250644153353 192.77232633522675 48.386477612573856
    vertex 83.56250644153354 192.77232633522672 55.88647761257387
  endloop
endfacet
facet normal -0.7933533402912337 0.6087614290087229 2.5318441677769215e-15
  outer loop
    vertex 83.56250644153353 192.77232633522675 48.386477612573856
    vertex 83.18870485279609 192.28517862037572 55.88647761257387
    vertex 83.56250644153354 192.77232633522672 55.88647761257387
  endloop
endfacet
facet normal -0.7933533402912337 0.6087614290087229 2.5318441677769215e-15
  outer loop
    vertex 83.18870485279609 192.28517862037572 55.88647761257387
    vertex 83.56250644153353 192.77232633522675 48.386477612573856
    vertex 83.18870485279608 192.28517862037575 48.386477612573856
  endloop
endfacet
facet normal -0.9238795325112917 0.3826834323650783 2.4232154287510525e-15
  outer loop
    vertex 83.18870485279608 192.28517862037575 48.386477612573856
    vertex 82.95372335070823 191.71788309112839 55.88647761257387
    vertex 83.18870485279609 192.28517862037572 55.88647761257387
  endloop
endfacet
facet normal -0.9238795325112917 0.3826834323650783 2.4232154287510525e-15
  outer loop
    vertex 82.95372335070823 191.71788309112839 55.88647761257387
    vertex 83.18870485279608 192.28517862037575 48.386477612573856
    vertex 82.95372335070822 191.7178830911284 48.386477612573856
  endloop
endfacet
facet normal -0.9914448613738113 0.1305261922200455 2.1494485628086467e-15
  outer loop
    vertex 82.95372335070822 191.7178830911284 48.386477612573856
    vertex 82.87357553631212 191.10910000030316 55.88647761257387
    vertex 82.95372335070823 191.71788309112839 55.88647761257387
  endloop
endfacet
facet normal -0.9914448613738113 0.1305261922200455 2.1494485628086467e-15
  outer loop
    vertex 82.87357553631212 191.10910000030316 55.88647761257387
    vertex 82.95372335070822 191.7178830911284 48.386477612573856
    vertex 82.8735755363121 191.10910000030316 48.386477612573856
  endloop
endfacet
facet normal -0.9914448613738119 -0.13052619222004078 1.7292003294425596e-15
  outer loop
    vertex 82.8735755363121 191.10910000030316 48.386477612573856
    vertex 82.95372335070823 190.50031690947785 55.88647761257387
    vertex 82.87357553631212 191.10910000030316 55.88647761257387
  endloop
endfacet
facet normal -0.9914448613738119 -0.13052619222004078 1.7292003294425596e-15
  outer loop
    vertex 82.95372335070823 190.50031690947785 55.88647761257387
    vertex 82.8735755363121 191.10910000030316 48.386477612573856
    vertex 82.95372335070822 190.50031690947787 48.386477612573856
  endloop
endfacet
facet normal 0.6087614290087034 0.7933533402912483 8.638560981931258e-17
  outer loop
    vertex 86.4018113965297 193.14612792396426 48.386477612573856
    vertex 86.88895911138081 192.77232633522675 55.88647761257387
    vertex 86.8889591113808 192.77232633522675 48.386477612573856
  endloop
endfacet
facet normal 0.6087614290087034 0.7933533402912483 8.638560981931258e-17
  outer loop
    vertex 86.88895911138081 192.77232633522675 55.88647761257387
    vertex 86.4018113965297 193.14612792396426 48.386477612573856
    vertex 86.40181139652971 193.14612792396423 55.88647761257387
  endloop
endfacet
facet normal -0.9238795325112897 -0.3826834323650826 1.1911099512635897e-15
  outer loop
    vertex 82.95372335070822 190.50031690947787 48.386477612573856
    vertex 83.18870485279609 189.9330213802305 55.88647761257387
    vertex 82.95372335070823 190.50031690947785 55.88647761257387
  endloop
endfacet
facet normal -0.9238795325112897 -0.3826834323650826 1.1911099512635897e-15
  outer loop
    vertex 83.18870485279609 189.9330213802305 55.88647761257387
    vertex 82.95372335070822 190.50031690947787 48.386477612573856
    vertex 83.18870485279609 189.93302138023054 48.386477612573856
  endloop
endfacet
facet normal -0.7933533402912034 -0.6087614290087621 5.718473983081285e-16
  outer loop
    vertex 83.18870485279609 189.93302138023054 48.386477612573856
    vertex 83.56250644153354 189.44587366537957 55.88647761257387
    vertex 83.18870485279609 189.9330213802305 55.88647761257387
  endloop
endfacet
facet normal -0.7933533402912034 -0.6087614290087621 5.718473983081285e-16
  outer loop
    vertex 83.56250644153354 189.44587366537957 55.88647761257387
    vertex 83.18870485279609 189.93302138023054 48.386477612573856
    vertex 83.56250644153354 189.4458736653796 48.386477612573856
  endloop
endfacet
facet normal -0.6087614290087034 -0.7933533402912483 -8.638560981931258e-17
  outer loop
    vertex 83.56250644153354 189.44587366537957 55.88647761257387
    vertex 84.04965415638465 189.0720720766421 48.386477612573856
    vertex 84.04965415638465 189.07207207664206 55.88647761257387
  endloop
endfacet
facet normal -0.6087614290087034 -0.7933533402912483 -8.638560981931258e-17
  outer loop
    vertex 84.04965415638465 189.0720720766421 48.386477612573856
    vertex 83.56250644153354 189.44587366537957 55.88647761257387
    vertex 83.56250644153354 189.4458736653796 48.386477612573856
  endloop
endfacet
facet normal -0.13052619222010822 -0.991444861373803 -1.3407342165132258e-15
  outer loop
    vertex 84.6169496856319 188.83709057455425 55.88647761257387
    vertex 85.22573277645718 188.7569427601581 48.386477612573856
    vertex 85.22573277645719 188.75694276015807 55.88647761257387
  endloop
endfacet
facet normal -0.13052619222010822 -0.991444861373803 -1.3407342165132258e-15
  outer loop
    vertex 85.22573277645718 188.7569427601581 48.386477612573856
    vertex 84.6169496856319 188.83709057455425 55.88647761257387
    vertex 84.6169496856319 188.83709057455425 48.386477612573856
  endloop
endfacet
facet normal 0.130526192220113 -0.9914448613738024 -1.8513680304429114e-15
  outer loop
    vertex 85.22573277645719 188.75694276015807 55.88647761257387
    vertex 85.83451586728246 188.83709057455425 48.386477612573856
    vertex 85.83451586728248 188.83709057455425 55.88647761257387
  endloop
endfacet
facet normal 0.130526192220113 -0.9914448613738024 -1.8513680304429114e-15
  outer loop
    vertex 85.83451586728246 188.83709057455425 48.386477612573856
    vertex 85.22573277645719 188.75694276015807 55.88647761257387
    vertex 85.22573277645718 188.7569427601581 48.386477612573856
  endloop
endfacet
facet normal -0.3826834323650675 -0.9238795325112962 -7.387315813966197e-16
  outer loop
    vertex 84.04965415638465 189.07207207664206 55.88647761257387
    vertex 84.6169496856319 188.83709057455425 48.386477612573856
    vertex 84.6169496856319 188.83709057455425 55.88647761257387
  endloop
endfacet
facet normal -0.3826834323650675 -0.9238795325112962 -7.387315813966197e-16
  outer loop
    vertex 84.6169496856319 188.83709057455425 48.386477612573856
    vertex 84.04965415638465 189.07207207664206 55.88647761257387
    vertex 84.04965415638465 189.0720720766421 48.386477612573856
  endloop
endfacet
facet normal 0.38268343236507185 -0.9238795325112942 -2.2358341726278897e-15
  outer loop
    vertex 85.83451586728248 188.83709057455425 55.88647761257387
    vertex 86.40181139652971 189.0720720766421 48.386477612573856
    vertex 86.40181139652972 189.0720720766421 55.88647761257387
  endloop
endfacet
facet normal 0.38268343236507185 -0.9238795325112942 -2.2358341726278897e-15
  outer loop
    vertex 86.40181139652971 189.0720720766421 48.386477612573856
    vertex 85.83451586728248 188.83709057455425 55.88647761257387
    vertex 85.83451586728246 188.83709057455425 48.386477612573856
  endloop
endfacet
facet normal 0.6087614290087073 -0.7933533402912456 -2.4679319108390907e-15
  outer loop
    vertex 86.40181139652972 189.0720720766421 55.88647761257387
    vertex 86.88895911138081 189.44587366537962 48.386477612573856
    vertex 86.88895911138083 189.4458736653796 55.88647761257387
  endloop
endfacet
facet normal 0.6087614290087073 -0.7933533402912456 -2.4679319108390907e-15
  outer loop
    vertex 86.88895911138081 189.44587366537962 48.386477612573856
    vertex 86.40181139652972 189.0720720766421 55.88647761257387
    vertex 86.40181139652971 189.0720720766421 48.386477612573856
  endloop
endfacet
facet normal -0.130526192220113 0.9914448613738024 1.8513680304429114e-15
  outer loop
    vertex 84.61694968563188 193.38110942605206 48.386477612573856
    vertex 85.22573277645718 193.46125724044822 55.88647761257387
    vertex 85.22573277645716 193.46125724044825 48.386477612573856
  endloop
endfacet
facet normal -0.130526192220113 0.9914448613738024 1.8513680304429114e-15
  outer loop
    vertex 85.22573277645718 193.46125724044822 55.88647761257387
    vertex 84.61694968563188 193.38110942605206 48.386477612573856
    vertex 84.6169496856319 193.38110942605206 55.88647761257387
  endloop
endfacet
facet normal -0.38268343236507185 0.9238795325112942 2.2358341726278897e-15
  outer loop
    vertex 84.04965415638463 193.14612792396426 48.386477612573856
    vertex 84.6169496856319 193.38110942605206 55.88647761257387
    vertex 84.61694968563188 193.38110942605206 48.386477612573856
  endloop
endfacet
facet normal -0.38268343236507185 0.9238795325112942 2.2358341726278897e-15
  outer loop
    vertex 84.6169496856319 193.38110942605206 55.88647761257387
    vertex 84.04965415638463 193.14612792396426 48.386477612573856
    vertex 84.04965415638465 193.14612792396423 55.88647761257387
  endloop
endfacet
facet normal 0.9914448613738084 -0.13052619222006825 -2.677229931592376e-15
  outer loop
    vertex 83.62573277645717 191.10910000030316 47.88647761257386
    vertex 83.68025145439469 191.52321047246716 55.88647761257387
    vertex 83.62573277645718 191.10910000030316 55.88647761257387
  endloop
endfacet
facet normal 0.9914448613738084 -0.13052619222006825 -2.677229931592376e-15
  outer loop
    vertex 83.68025145439469 191.52321047246716 55.88647761257387
    vertex 83.62573277645717 191.10910000030316 47.88647761257386
    vertex 83.68025145439466 191.52321047246718 47.88647761257386
  endloop
endfacet
facet normal -0.9238795325112916 0.3826834323650782 2.8671153342720936e-15
  outer loop
    vertex 86.77121409851966 190.6949895281391 47.88647761257385
    vertex 86.6113734225123 190.30910000030315 55.88647761257387
    vertex 86.77121409851969 190.6949895281391 55.88647761257387
  endloop
endfacet
facet normal -0.9238795325112916 0.3826834323650782 2.8671153342720936e-15
  outer loop
    vertex 86.6113734225123 190.30910000030315 55.88647761257387
    vertex 86.77121409851966 190.6949895281391 47.88647761257385
    vertex 86.61137342251227 190.30910000030318 47.88647761257385
  endloop
endfacet
facet normal 0.7933533402912337 -0.6087614290087229 -2.5318441677769215e-15
  outer loop
    vertex 86.88895911138081 189.44587366537962 48.386477612573856
    vertex 87.26276070011828 189.9330213802306 55.88647761257387
    vertex 86.88895911138083 189.4458736653796 55.88647761257387
  endloop
endfacet
facet normal 0.7933533402912337 -0.6087614290087229 -2.5318441677769215e-15
  outer loop
    vertex 87.26276070011828 189.9330213802306 55.88647761257387
    vertex 86.88895911138081 189.44587366537962 48.386477612573856
    vertex 87.26276070011826 189.9330213802306 48.386477612573856
  endloop
endfacet
facet normal -0.7933533402912152 0.6087614290087466 2.957469495397371e-15
  outer loop
    vertex 86.61137342251227 190.30910000030318 47.88647761257385
    vertex 86.35710362635565 189.9777291504047 55.88647761257387
    vertex 86.6113734225123 190.30910000030315 55.88647761257387
  endloop
endfacet
facet normal -0.7933533402912152 0.6087614290087466 2.957469495397371e-15
  outer loop
    vertex 86.35710362635565 189.9777291504047 55.88647761257387
    vertex 86.61137342251227 190.30910000030318 47.88647761257385
    vertex 86.35710362635564 189.9777291504047 47.88647761257385
  endloop
endfacet
facet normal 0.9238795325113072 0.3826834323650405 -1.1911099512636918e-15
  outer loop
    vertex 87.4977422022061 191.7178830911285 48.38647761257385
    vertex 87.2627607001183 192.28517862037575 55.886477612573856
    vertex 87.49774220220611 191.7178830911285 55.886477612573856
  endloop
endfacet
facet normal 0.9238795325113072 0.3826834323650405 -1.1911099512636918e-15
  outer loop
    vertex 87.2627607001183 192.28517862037575 55.886477612573856
    vertex 87.4977422022061 191.7178830911285 48.38647761257385
    vertex 87.2627607001183 192.28517862037575 48.386477612573856
  endloop
endfacet
facet normal 0.7933533402911951 0.6087614290087728 -5.71847398308095e-16
  outer loop
    vertex 87.2627607001183 192.28517862037575 48.386477612573856
    vertex 86.88895911138081 192.77232633522675 55.88647761257387
    vertex 87.2627607001183 192.28517862037575 55.886477612573856
  endloop
endfacet
facet normal 0.7933533402911951 0.6087614290087728 -5.71847398308095e-16
  outer loop
    vertex 86.88895911138081 192.77232633522675 55.88647761257387
    vertex 87.2627607001183 192.28517862037575 48.386477612573856
    vertex 86.8889591113808 192.77232633522675 48.386477612573856
  endloop
endfacet
facet normal 0.6087614290087116 0.7933533402912422 -3.376092902350931e-16
  outer loop
    vertex 87.22573277645715 194.57320161544092 47.88647761257386
    vertex 88.05415990120336 193.9375271250494 48.387065612573856
    vertex 88.05415990120336 193.9375271250494 47.88647761257386
  endloop
endfacet
facet normal 0.6087614290087116 0.7933533402912422 -3.376092902350931e-16
  outer loop
    vertex 88.05415990120336 193.9375271250494 48.387065612573856
    vertex 87.22573277645715 194.57320161544092 47.88647761257386
    vertex 87.22573277645716 194.57320161544092 48.387065612573856
  endloop
endfacet
facet normal 0.13052619222005066 0.9914448613738106 1.0732610276911972e-15
  outer loop
    vertex 85.22573277645715 195.1091000003032 47.88647761257386
    vertex 86.26100895686724 194.97280330545945 48.38706561257386
    vertex 86.26100895686723 194.97280330545945 47.88647761257386
  endloop
endfacet
facet normal 0.13052619222005066 0.9914448613738106 1.0732610276911972e-15
  outer loop
    vertex 86.26100895686724 194.97280330545945 48.38706561257386
    vertex 85.22573277645715 195.1091000003032 47.88647761257386
    vertex 85.22573277645715 195.1091000003032 48.38706561257386
  endloop
endfacet
facet normal -2.3723924345577747e-15 1.3948535440583302e-15 -1.0
  outer loop
    vertex 86.26100895686723 194.97280330545945 47.88647761257386
    vertex 84.19045659604706 194.97280330545945 47.88647761257387
    vertex 85.22573277645715 195.1091000003032 47.88647761257386
  endloop
endfacet
facet normal -2.3723924345577747e-15 1.3948535440583302e-15 -1.0
  outer loop
    vertex 84.19045659604706 194.97280330545945 47.88647761257387
    vertex 86.26100895686723 194.97280330545945 47.88647761257386
    vertex 87.22573277645715 194.57320161544092 47.88647761257386
  endloop
endfacet
facet normal -2.3723924345577747e-15 1.3948535440583302e-15 -1.0
  outer loop
    vertex 84.19045659604706 194.97280330545945 47.88647761257387
    vertex 87.22573277645715 194.57320161544092 47.88647761257386
    vertex 83.22573277645716 194.57320161544092 47.88647761257387
  endloop
endfacet
facet normal -2.3723924345577747e-15 1.3948535440583302e-15 -1.0
  outer loop
    vertex 83.22573277645716 194.57320161544092 47.88647761257387
    vertex 87.22573277645715 194.57320161544092 47.88647761257386
    vertex 88.05415990120336 193.9375271250494 47.88647761257386
  endloop
endfacet
facet normal -2.3723924345577747e-15 1.3948535440583302e-15 -1.0
  outer loop
    vertex 83.22573277645716 194.57320161544092 47.88647761257387
    vertex 88.05415990120336 193.9375271250494 47.88647761257386
    vertex 82.39730565171097 193.93752712504934 47.88647761257388
  endloop
endfacet
facet normal -2.3723924345577747e-15 1.3948535440583302e-15 -1.0
  outer loop
    vertex 82.39730565171097 193.93752712504934 47.88647761257388
    vertex 88.05415990120336 193.9375271250494 47.88647761257386
    vertex 88.68983439159493 193.1091000003032 47.88647761257386
  endloop
endfacet
facet normal -2.3723924345577747e-15 1.3948535440583302e-15 -1.0
  outer loop
    vertex 82.39730565171097 193.93752712504934 47.88647761257388
    vertex 88.68983439159493 193.1091000003032 47.88647761257386
    vertex 81.76163116131941 193.10910000030316 47.88647761257388
  endloop
endfacet
facet normal -2.3723924345577747e-15 1.3948535440583302e-15 -1.0
  outer loop
    vertex 81.76163116131941 193.10910000030316 47.88647761257388
    vertex 88.68983439159493 193.1091000003032 47.88647761257386
    vertex 85.22573277645716 192.70910000030315 47.88647761257386
  endloop
endfacet
facet normal -2.3723924345577747e-15 1.3948535440583302e-15 -1.0
  outer loop
    vertex 85.22573277645716 192.70910000030315 47.88647761257386
    vertex 88.68983439159493 193.1091000003032 47.88647761257386
    vertex 85.6398432486212 192.6545813223657 47.886477612573856
  endloop
endfacet
facet normal -2.3723924345577747e-15 1.3948535440583302e-15 -1.0
  outer loop
    vertex 85.6398432486212 192.6545813223657 47.886477612573856
    vertex 88.68983439159493 193.1091000003032 47.88647761257386
    vertex 89.08943608161344 192.1443761807133 47.886477612573856
  endloop
endfacet
facet normal -2.3723924345577747e-15 1.3948535440583302e-15 -1.0
  outer loop
    vertex 85.6398432486212 192.6545813223657 47.886477612573856
    vertex 89.08943608161344 192.1443761807133 47.886477612573856
    vertex 86.02573277645716 192.49474064635825 47.886477612573856
  endloop
endfacet
facet normal -2.3723924345577747e-15 1.3948535440583302e-15 -1.0
  outer loop
    vertex 86.02573277645716 192.49474064635825 47.886477612573856
    vertex 89.08943608161344 192.1443761807133 47.886477612573856
    vertex 86.35710362635564 192.24047085020163 47.886477612573856
  endloop
endfacet
facet normal -2.3723924345577747e-15 1.3948535440583302e-15 -1.0
  outer loop
    vertex 86.35710362635564 192.24047085020163 47.886477612573856
    vertex 89.08943608161344 192.1443761807133 47.886477612573856
    vertex 86.61137342251227 191.90910000030317 47.886477612573856
  endloop
endfacet
facet normal -2.3723924345577747e-15 1.3948535440583302e-15 -1.0
  outer loop
    vertex 86.61137342251227 191.90910000030317 47.886477612573856
    vertex 89.08943608161344 192.1443761807133 47.886477612573856
    vertex 89.22573277645716 191.1091000003032 47.886477612573856
  endloop
endfacet
facet normal -2.3723924345577747e-15 1.3948535440583302e-15 -1.0
  outer loop
    vertex 86.61137342251227 191.90910000030317 47.886477612573856
    vertex 89.22573277645716 191.1091000003032 47.886477612573856
    vertex 86.77121409851966 191.5232104724672 47.886477612573856
  endloop
endfacet
facet normal -2.3723924345577747e-15 1.3948535440583302e-15 -1.0
  outer loop
    vertex 86.77121409851966 191.5232104724672 47.886477612573856
    vertex 89.22573277645716 191.1091000003032 47.886477612573856
    vertex 86.82573277645716 191.10910000030316 47.886477612573856
  endloop
endfacet
facet normal -2.3723924345577747e-15 1.3948535440583302e-15 -1.0
  outer loop
    vertex 86.82573277645716 191.10910000030316 47.886477612573856
    vertex 89.22573277645716 191.1091000003032 47.886477612573856
    vertex 89.08943608161344 190.0738238198931 47.88647761257385
  endloop
endfacet
facet normal -2.3723924345577747e-15 1.3948535440583302e-15 -1.0
  outer loop
    vertex 86.82573277645716 191.10910000030316 47.886477612573856
    vertex 89.08943608161344 190.0738238198931 47.88647761257385
    vertex 86.77121409851966 190.6949895281391 47.88647761257385
  endloop
endfacet
facet normal -2.3723924345577747e-15 1.3948535440583302e-15 -1.0
  outer loop
    vertex 86.77121409851966 190.6949895281391 47.88647761257385
    vertex 89.08943608161344 190.0738238198931 47.88647761257385
    vertex 86.61137342251227 190.30910000030318 47.88647761257385
  endloop
endfacet
facet normal -2.3723924345577747e-15 1.3948535440583302e-15 -1.0
  outer loop
    vertex 86.61137342251227 190.30910000030318 47.88647761257385
    vertex 89.08943608161344 190.0738238198931 47.88647761257385
    vertex 86.35710362635564 189.9777291504047 47.88647761257385
  endloop
endfacet
facet normal -2.3723924345577747e-15 1.3948535440583302e-15 -1.0
  outer loop
    vertex 86.35710362635564 189.9777291504047 47.88647761257385
    vertex 89.08943608161344 190.0738238198931 47.88647761257385
    vertex 88.68983439159493 189.1091000003032 47.88647761257385
  endloop
endfacet
facet normal -2.3723924345577747e-15 1.3948535440583302e-15 -1.0
  outer loop
    vertex 86.35710362635564 189.9777291504047 47.88647761257385
    vertex 88.68983439159493 189.1091000003032 47.88647761257385
    vertex 86.02573277645718 189.7234593542481 47.88647761257385
  endloop
endfacet
facet normal -2.3723924345577747e-15 1.3948535440583302e-15 -1.0
  outer loop
    vertex 86.02573277645718 189.7234593542481 47.88647761257385
    vertex 88.68983439159493 189.1091000003032 47.88647761257385
    vertex 85.6398432486212 189.56361867824066 47.88647761257386
  endloop
endfacet
facet normal -2.3723924345577747e-15 1.3948535440583302e-15 -1.0
  outer loop
    vertex 85.6398432486212 189.56361867824066 47.88647761257386
    vertex 88.68983439159493 189.1091000003032 47.88647761257385
    vertex 85.22573277645718 189.50910000030316 47.88647761257386
  endloop
endfacet
facet normal -2.3723924345577747e-15 1.3948535440583302e-15 -1.0
  outer loop
    vertex 81.76163116131941 193.10910000030316 47.88647761257388
    vertex 84.81162230429314 192.6545813223657 47.88647761257386
    vertex 81.36202947130089 192.14437618071324 47.88647761257387
  endloop
endfacet
facet normal -2.3723924345577747e-15 1.3948535440583302e-15 -1.0
  outer loop
    vertex 84.81162230429314 192.6545813223657 47.88647761257386
    vertex 81.76163116131941 193.10910000030316 47.88647761257388
    vertex 85.22573277645716 192.70910000030315 47.88647761257386
  endloop
endfacet
facet normal -2.3723924345577747e-15 1.3948535440583302e-15 -1.0
  outer loop
    vertex 81.36202947130089 192.14437618071324 47.88647761257387
    vertex 84.81162230429314 192.6545813223657 47.88647761257386
    vertex 84.42573277645717 192.49474064635825 47.88647761257386
  endloop
endfacet
facet normal -2.3723924345577747e-15 1.3948535440583302e-15 -1.0
  outer loop
    vertex 81.36202947130089 192.14437618071324 47.88647761257387
    vertex 84.42573277645717 192.49474064635825 47.88647761257386
    vertex 84.09436192655869 192.24047085020163 47.88647761257386
  endloop
endfacet
facet normal -2.3723924345577747e-15 1.3948535440583302e-15 -1.0
  outer loop
    vertex 81.36202947130089 192.14437618071324 47.88647761257387
    vertex 84.09436192655869 192.24047085020163 47.88647761257386
    vertex 83.84009213040206 191.90910000030317 47.88647761257386
  endloop
endfacet
facet normal -2.3723924345577747e-15 1.3948535440583302e-15 -1.0
  outer loop
    vertex 81.36202947130089 192.14437618071324 47.88647761257387
    vertex 83.84009213040206 191.90910000030317 47.88647761257386
    vertex 81.22573277645716 191.10910000030316 47.88647761257387
  endloop
endfacet
facet normal -2.3723924345577747e-15 1.3948535440583302e-15 -1.0
  outer loop
    vertex 81.22573277645716 191.10910000030316 47.88647761257387
    vertex 83.84009213040206 191.90910000030317 47.88647761257386
    vertex 83.68025145439466 191.52321047246718 47.88647761257386
  endloop
endfacet
facet normal -2.3723924345577747e-15 1.3948535440583302e-15 -1.0
  outer loop
    vertex 81.22573277645716 191.10910000030316 47.88647761257387
    vertex 83.68025145439466 191.52321047246718 47.88647761257386
    vertex 83.62573277645717 191.10910000030316 47.88647761257386
  endloop
endfacet
facet normal -2.3723924345577747e-15 1.3948535440583302e-15 -1.0
  outer loop
    vertex 81.22573277645716 191.10910000030316 47.88647761257387
    vertex 83.62573277645717 191.10910000030316 47.88647761257386
    vertex 83.68025145439466 190.6949895281391 47.88647761257386
  endloop
endfacet
facet normal -2.3723924345577747e-15 1.3948535440583302e-15 -1.0
  outer loop
    vertex 81.22573277645716 191.10910000030316 47.88647761257387
    vertex 83.68025145439466 190.6949895281391 47.88647761257386
    vertex 81.36202947130089 190.07382381989308 47.88647761257386
  endloop
endfacet
facet normal -2.3723924345577747e-15 1.3948535440583302e-15 -1.0
  outer loop
    vertex 81.36202947130089 190.07382381989308 47.88647761257386
    vertex 83.68025145439466 190.6949895281391 47.88647761257386
    vertex 83.84009213040206 190.30910000030318 47.88647761257386
  endloop
endfacet
facet normal -2.3723924345577747e-15 1.3948535440583302e-15 -1.0
  outer loop
    vertex 81.36202947130089 190.07382381989308 47.88647761257386
    vertex 83.84009213040206 190.30910000030318 47.88647761257386
    vertex 84.0943619265587 189.9777291504047 47.886477612573856
  endloop
endfacet
facet normal -2.3723924345577747e-15 1.3948535440583302e-15 -1.0
  outer loop
    vertex 81.36202947130089 190.07382381989308 47.88647761257386
    vertex 84.0943619265587 189.9777291504047 47.886477612573856
    vertex 81.76163116131941 189.10910000030316 47.88647761257387
  endloop
endfacet
facet normal -2.3723924345577747e-15 1.3948535440583302e-15 -1.0
  outer loop
    vertex 81.76163116131941 189.10910000030316 47.88647761257387
    vertex 84.0943619265587 189.9777291504047 47.886477612573856
    vertex 84.42573277645718 189.7234593542481 47.886477612573856
  endloop
endfacet
facet normal -2.3723924345577747e-15 1.3948535440583302e-15 -1.0
  outer loop
    vertex 81.76163116131941 189.10910000030316 47.88647761257387
    vertex 84.42573277645718 189.7234593542481 47.886477612573856
    vertex 84.81162230429314 189.56361867824066 47.88647761257386
  endloop
endfacet
facet normal -2.3723924345577747e-15 1.3948535440583302e-15 -1.0
  outer loop
    vertex 81.76163116131941 189.10910000030316 47.88647761257387
    vertex 84.81162230429314 189.56361867824066 47.88647761257386
    vertex 85.22573277645718 189.50910000030316 47.88647761257386
  endloop
endfacet
facet normal -2.3723924345577747e-15 1.3948535440583302e-15 -1.0
  outer loop
    vertex 81.76163116131941 189.10910000030316 47.88647761257387
    vertex 85.22573277645718 189.50910000030316 47.88647761257386
    vertex 88.68983439159493 189.1091000003032 47.88647761257385
  endloop
endfacet
facet normal -2.3723924345577747e-15 1.3948535440583302e-15 -1.0
  outer loop
    vertex 81.76163116131941 189.10910000030316 47.88647761257387
    vertex 88.68983439159493 189.1091000003032 47.88647761257385
    vertex 88.05415990120338 188.280672875557 47.88647761257385
  endloop
endfacet
facet normal -2.3723924345577747e-15 1.3948535440583302e-15 -1.0
  outer loop
    vertex 81.76163116131941 189.10910000030316 47.88647761257387
    vertex 88.05415990120338 188.280672875557 47.88647761257385
    vertex 82.39730565171098 188.28067287555697 47.88647761257386
  endloop
endfacet
facet normal -2.3723924345577747e-15 1.3948535440583302e-15 -1.0
  outer loop
    vertex 82.39730565171098 188.28067287555697 47.88647761257386
    vertex 88.05415990120338 188.280672875557 47.88647761257385
    vertex 87.22573277645718 187.64499838516542 47.88647761257386
  endloop
endfacet
facet normal -2.3723924345577747e-15 1.3948535440583302e-15 -1.0
  outer loop
    vertex 82.39730565171098 188.28067287555697 47.88647761257386
    vertex 87.22573277645718 187.64499838516542 47.88647761257386
    vertex 83.22573277645718 187.64499838516542 47.88647761257386
  endloop
endfacet
facet normal -2.3723924345577747e-15 1.3948535440583302e-15 -1.0
  outer loop
    vertex 83.22573277645718 187.64499838516542 47.88647761257386
    vertex 87.22573277645718 187.64499838516542 47.88647761257386
    vertex 86.26100895686726 187.2453966951469 47.88647761257385
  endloop
endfacet
facet normal -2.3723924345577747e-15 1.3948535440583302e-15 -1.0
  outer loop
    vertex 83.22573277645718 187.64499838516542 47.88647761257386
    vertex 86.26100895686726 187.2453966951469 47.88647761257385
    vertex 84.1904565960471 187.2453966951469 47.886477612573856
  endloop
endfacet
facet normal -2.3723924345577747e-15 1.3948535440583302e-15 -1.0
  outer loop
    vertex 84.1904565960471 187.2453966951469 47.886477612573856
    vertex 86.26100895686726 187.2453966951469 47.88647761257385
    vertex 85.22573277645718 187.1091000003032 47.886477612573856
  endloop
endfacet
facet normal 0.3826834323650899 0.9238795325112866 3.808013604327807e-16
  outer loop
    vertex 86.26100895686723 194.97280330545945 47.88647761257386
    vertex 87.22573277645716 194.57320161544092 48.387065612573856
    vertex 87.22573277645715 194.57320161544092 47.88647761257386
  endloop
endfacet
facet normal 0.3826834323650899 0.9238795325112866 3.808013604327807e-16
  outer loop
    vertex 87.22573277645716 194.57320161544092 48.387065612573856
    vertex 86.26100895686723 194.97280330545945 47.88647761257386
    vertex 86.26100895686724 194.97280330545945 48.38706561257386
  endloop
endfacet
facet normal 2.3723924345577743e-15 -1.3948535440583298e-15 1.0
  outer loop
    vertex 81.76163116131941 193.10910000030316 48.38706561257388
    vertex 85.22573277645716 193.46125724044825 48.386477612573856
    vertex 82.39730565171097 193.93752712504934 48.38706561257388
  endloop
endfacet
facet normal 2.3723924345577743e-15 -1.3948535440583298e-15 1.0
  outer loop
    vertex 85.22573277645716 193.46125724044825 48.386477612573856
    vertex 81.76163116131941 193.10910000030316 48.38706561257388
    vertex 84.61694968563188 193.38110942605206 48.386477612573856
  endloop
endfacet
facet normal 2.3723924345577743e-15 -1.3948535440583298e-15 1.0
  outer loop
    vertex 84.61694968563188 193.38110942605206 48.386477612573856
    vertex 81.76163116131941 193.10910000030316 48.38706561257388
    vertex 84.04965415638463 193.14612792396426 48.386477612573856
  endloop
endfacet
facet normal 2.3723924345577743e-15 -1.3948535440583298e-15 1.0
  outer loop
    vertex 84.04965415638463 193.14612792396426 48.386477612573856
    vertex 81.76163116131941 193.10910000030316 48.38706561257388
    vertex 83.56250644153353 192.77232633522675 48.386477612573856
  endloop
endfacet
facet normal 2.3723924345577743e-15 -1.3948535440583298e-15 1.0
  outer loop
    vertex 83.56250644153353 192.77232633522675 48.386477612573856
    vertex 81.76163116131941 193.10910000030316 48.38706561257388
    vertex 81.36202947130089 192.14437618071324 48.38706561257387
  endloop
endfacet
facet normal 2.3723924345577743e-15 -1.3948535440583298e-15 1.0
  outer loop
    vertex 83.56250644153353 192.77232633522675 48.386477612573856
    vertex 81.36202947130089 192.14437618071324 48.38706561257387
    vertex 83.18870485279608 192.28517862037575 48.386477612573856
  endloop
endfacet
facet normal 2.3723924345577743e-15 -1.3948535440583298e-15 1.0
  outer loop
    vertex 83.18870485279608 192.28517862037575 48.386477612573856
    vertex 81.36202947130089 192.14437618071324 48.38706561257387
    vertex 82.95372335070822 191.7178830911284 48.386477612573856
  endloop
endfacet
facet normal 2.3723924345577743e-15 -1.3948535440583298e-15 1.0
  outer loop
    vertex 82.95372335070822 191.7178830911284 48.386477612573856
    vertex 81.36202947130089 192.14437618071324 48.38706561257387
    vertex 81.22573277645716 191.10910000030316 48.38706561257386
  endloop
endfacet
facet normal 2.3723924345577743e-15 -1.3948535440583298e-15 1.0
  outer loop
    vertex 82.95372335070822 191.7178830911284 48.386477612573856
    vertex 81.22573277645716 191.10910000030316 48.38706561257386
    vertex 82.8735755363121 191.10910000030316 48.386477612573856
  endloop
endfacet
facet normal 2.3723924345577743e-15 -1.3948535440583298e-15 1.0
  outer loop
    vertex 82.8735755363121 191.10910000030316 48.386477612573856
    vertex 81.22573277645716 191.10910000030316 48.38706561257386
    vertex 81.3620294713009 190.07382381989308 48.38706561257386
  endloop
endfacet
facet normal 2.3723924345577743e-15 -1.3948535440583298e-15 1.0
  outer loop
    vertex 82.8735755363121 191.10910000030316 48.386477612573856
    vertex 81.3620294713009 190.07382381989308 48.38706561257386
    vertex 82.95372335070822 190.50031690947787 48.386477612573856
  endloop
endfacet
facet normal 2.3723924345577743e-15 -1.3948535440583298e-15 1.0
  outer loop
    vertex 82.95372335070822 190.50031690947787 48.386477612573856
    vertex 81.3620294713009 190.07382381989308 48.38706561257386
    vertex 83.18870485279609 189.93302138023054 48.386477612573856
  endloop
endfacet
facet normal 2.3723924345577743e-15 -1.3948535440583298e-15 1.0
  outer loop
    vertex 83.18870485279609 189.93302138023054 48.386477612573856
    vertex 81.3620294713009 190.07382381989308 48.38706561257386
    vertex 81.76163116131941 189.10910000030316 48.38706561257387
  endloop
endfacet
facet normal 2.3723924345577743e-15 -1.3948535440583298e-15 1.0
  outer loop
    vertex 83.18870485279609 189.93302138023054 48.386477612573856
    vertex 81.76163116131941 189.10910000030316 48.38706561257387
    vertex 83.56250644153354 189.4458736653796 48.386477612573856
  endloop
endfacet
facet normal 2.3723924345577743e-15 -1.3948535440583298e-15 1.0
  outer loop
    vertex 83.56250644153354 189.4458736653796 48.386477612573856
    vertex 81.76163116131941 189.10910000030316 48.38706561257387
    vertex 84.04965415638465 189.0720720766421 48.386477612573856
  endloop
endfacet
facet normal 2.3723924345577743e-15 -1.3948535440583298e-15 1.0
  outer loop
    vertex 84.04965415638465 189.0720720766421 48.386477612573856
    vertex 81.76163116131941 189.10910000030316 48.38706561257387
    vertex 82.39730565171098 188.28067287555697 48.38706561257386
  endloop
endfacet
facet normal 2.3723924345577743e-15 -1.3948535440583298e-15 1.0
  outer loop
    vertex 84.04965415638465 189.0720720766421 48.386477612573856
    vertex 82.39730565171098 188.28067287555697 48.38706561257386
    vertex 84.6169496856319 188.83709057455425 48.386477612573856
  endloop
endfacet
facet normal 2.3723924345577743e-15 -1.3948535440583298e-15 1.0
  outer loop
    vertex 84.6169496856319 188.83709057455425 48.386477612573856
    vertex 82.39730565171098 188.28067287555697 48.38706561257386
    vertex 85.22573277645718 188.7569427601581 48.386477612573856
  endloop
endfacet
facet normal 2.3723924345577743e-15 -1.3948535440583298e-15 1.0
  outer loop
    vertex 84.19045659604706 194.97280330545945 48.38706561257386
    vertex 86.26100895686724 194.97280330545945 48.38706561257386
    vertex 85.22573277645715 195.1091000003032 48.38706561257386
  endloop
endfacet
facet normal 2.3723924345577743e-15 -1.3948535440583298e-15 1.0
  outer loop
    vertex 86.26100895686724 194.97280330545945 48.38706561257386
    vertex 84.19045659604706 194.97280330545945 48.38706561257386
    vertex 83.22573277645716 194.57320161544092 48.38706561257387
  endloop
endfacet
facet normal 2.3723924345577743e-15 -1.3948535440583298e-15 1.0
  outer loop
    vertex 86.26100895686724 194.97280330545945 48.38706561257386
    vertex 83.22573277645716 194.57320161544092 48.38706561257387
    vertex 87.22573277645716 194.57320161544092 48.387065612573856
  endloop
endfacet
facet normal 2.3723924345577743e-15 -1.3948535440583298e-15 1.0
  outer loop
    vertex 87.22573277645716 194.57320161544092 48.387065612573856
    vertex 83.22573277645716 194.57320161544092 48.38706561257387
    vertex 82.39730565171097 193.93752712504934 48.38706561257388
  endloop
endfacet
facet normal 2.3723924345577743e-15 -1.3948535440583298e-15 1.0
  outer loop
    vertex 87.22573277645716 194.57320161544092 48.387065612573856
    vertex 82.39730565171097 193.93752712504934 48.38706561257388
    vertex 88.05415990120336 193.9375271250494 48.387065612573856
  endloop
endfacet
facet normal 2.3723924345577743e-15 -1.3948535440583298e-15 1.0
  outer loop
    vertex 88.05415990120336 193.9375271250494 48.387065612573856
    vertex 82.39730565171097 193.93752712504934 48.38706561257388
    vertex 88.68983439159493 193.1091000003032 48.387065612573856
  endloop
endfacet
facet normal 2.3723924345577743e-15 -1.3948535440583298e-15 1.0
  outer loop
    vertex 88.68983439159493 193.1091000003032 48.387065612573856
    vertex 82.39730565171097 193.93752712504934 48.38706561257388
    vertex 85.22573277645716 193.46125724044825 48.386477612573856
  endloop
endfacet
facet normal 2.3723924345577743e-15 -1.3948535440583298e-15 1.0
  outer loop
    vertex 88.68983439159493 193.1091000003032 48.387065612573856
    vertex 85.22573277645716 193.46125724044825 48.386477612573856
    vertex 85.83451586728245 193.38110942605206 48.386477612573856
  endloop
endfacet
facet normal 2.3723924345577743e-15 -1.3948535440583298e-15 1.0
  outer loop
    vertex 88.68983439159493 193.1091000003032 48.387065612573856
    vertex 85.83451586728245 193.38110942605206 48.386477612573856
    vertex 86.4018113965297 193.14612792396426 48.386477612573856
  endloop
endfacet
facet normal 2.3723924345577743e-15 -1.3948535440583298e-15 1.0
  outer loop
    vertex 88.68983439159493 193.1091000003032 48.387065612573856
    vertex 86.4018113965297 193.14612792396426 48.386477612573856
    vertex 86.8889591113808 192.77232633522675 48.386477612573856
  endloop
endfacet
facet normal 2.3723924345577743e-15 -1.3948535440583298e-15 1.0
  outer loop
    vertex 88.68983439159493 193.1091000003032 48.387065612573856
    vertex 86.8889591113808 192.77232633522675 48.386477612573856
    vertex 89.08943608161344 192.1443761807133 48.387065612573856
  endloop
endfacet
facet normal 2.3723924345577743e-15 -1.3948535440583298e-15 1.0
  outer loop
    vertex 89.08943608161344 192.1443761807133 48.387065612573856
    vertex 86.8889591113808 192.77232633522675 48.386477612573856
    vertex 87.2627607001183 192.28517862037575 48.386477612573856
  endloop
endfacet
facet normal 2.3723924345577743e-15 -1.3948535440583298e-15 1.0
  outer loop
    vertex 89.08943608161344 192.1443761807133 48.387065612573856
    vertex 87.2627607001183 192.28517862037575 48.386477612573856
    vertex 87.4977422022061 191.7178830911285 48.38647761257385
  endloop
endfacet
facet normal 2.3723924345577743e-15 -1.3948535440583298e-15 1.0
  outer loop
    vertex 89.08943608161344 192.1443761807133 48.387065612573856
    vertex 87.4977422022061 191.7178830911285 48.38647761257385
    vertex 89.22573277645716 191.1091000003032 48.387065612573856
  endloop
endfacet
facet normal 2.3723924345577743e-15 -1.3948535440583298e-15 1.0
  outer loop
    vertex 89.22573277645716 191.1091000003032 48.387065612573856
    vertex 87.4977422022061 191.7178830911285 48.38647761257385
    vertex 87.57789001660223 191.1091000003032 48.38647761257385
  endloop
endfacet
facet normal 2.3723924345577743e-15 -1.3948535440583298e-15 1.0
  outer loop
    vertex 89.22573277645716 191.1091000003032 48.387065612573856
    vertex 87.57789001660223 191.1091000003032 48.38647761257385
    vertex 87.49774220220611 190.50031690947793 48.38647761257385
  endloop
endfacet
facet normal 2.3723924345577743e-15 -1.3948535440583298e-15 1.0
  outer loop
    vertex 89.22573277645716 191.1091000003032 48.387065612573856
    vertex 87.49774220220611 190.50031690947793 48.38647761257385
    vertex 89.08943608161346 190.0738238198931 48.387065612573856
  endloop
endfacet
facet normal 2.3723924345577743e-15 -1.3948535440583298e-15 1.0
  outer loop
    vertex 89.08943608161346 190.0738238198931 48.387065612573856
    vertex 87.49774220220611 190.50031690947793 48.38647761257385
    vertex 87.26276070011826 189.9330213802306 48.386477612573856
  endloop
endfacet
facet normal 2.3723924345577743e-15 -1.3948535440583298e-15 1.0
  outer loop
    vertex 89.08943608161346 190.0738238198931 48.387065612573856
    vertex 87.26276070011826 189.9330213802306 48.386477612573856
    vertex 88.68983439159493 189.1091000003032 48.38706561257385
  endloop
endfacet
facet normal 2.3723924345577743e-15 -1.3948535440583298e-15 1.0
  outer loop
    vertex 88.68983439159493 189.1091000003032 48.38706561257385
    vertex 87.26276070011826 189.9330213802306 48.386477612573856
    vertex 86.88895911138081 189.44587366537962 48.386477612573856
  endloop
endfacet
facet normal 2.3723924345577743e-15 -1.3948535440583298e-15 1.0
  outer loop
    vertex 88.68983439159493 189.1091000003032 48.38706561257385
    vertex 86.88895911138081 189.44587366537962 48.386477612573856
    vertex 86.40181139652971 189.0720720766421 48.386477612573856
  endloop
endfacet
facet normal 2.3723924345577743e-15 -1.3948535440583298e-15 1.0
  outer loop
    vertex 88.68983439159493 189.1091000003032 48.38706561257385
    vertex 86.40181139652971 189.0720720766421 48.386477612573856
    vertex 88.05415990120338 188.280672875557 48.38706561257385
  endloop
endfacet
facet normal 2.3723924345577743e-15 -1.3948535440583298e-15 1.0
  outer loop
    vertex 88.05415990120338 188.280672875557 48.38706561257385
    vertex 86.40181139652971 189.0720720766421 48.386477612573856
    vertex 85.83451586728246 188.83709057455425 48.386477612573856
  endloop
endfacet
facet normal 2.3723924345577743e-15 -1.3948535440583298e-15 1.0
  outer loop
    vertex 88.05415990120338 188.280672875557 48.38706561257385
    vertex 85.83451586728246 188.83709057455425 48.386477612573856
    vertex 85.22573277645718 188.7569427601581 48.386477612573856
  endloop
endfacet
facet normal 2.3723924345577743e-15 -1.3948535440583298e-15 1.0
  outer loop
    vertex 88.05415990120338 188.280672875557 48.38706561257385
    vertex 85.22573277645718 188.7569427601581 48.386477612573856
    vertex 82.39730565171098 188.28067287555697 48.38706561257386
  endloop
endfacet
facet normal 2.3723924345577743e-15 -1.3948535440583298e-15 1.0
  outer loop
    vertex 88.05415990120338 188.280672875557 48.38706561257385
    vertex 82.39730565171098 188.28067287555697 48.38706561257386
    vertex 83.22573277645718 187.64499838516542 48.38706561257387
  endloop
endfacet
facet normal 2.3723924345577743e-15 -1.3948535440583298e-15 1.0
  outer loop
    vertex 88.05415990120338 188.280672875557 48.38706561257385
    vertex 83.22573277645718 187.64499838516542 48.38706561257387
    vertex 87.22573277645718 187.64499838516542 48.387065612573856
  endloop
endfacet
facet normal 2.3723924345577743e-15 -1.3948535440583298e-15 1.0
  outer loop
    vertex 87.22573277645718 187.64499838516542 48.387065612573856
    vertex 83.22573277645718 187.64499838516542 48.38706561257387
    vertex 84.1904565960471 187.2453966951469 48.387065612573856
  endloop
endfacet
facet normal 2.3723924345577743e-15 -1.3948535440583298e-15 1.0
  outer loop
    vertex 87.22573277645718 187.64499838516542 48.387065612573856
    vertex 84.1904565960471 187.2453966951469 48.387065612573856
    vertex 86.26100895686726 187.2453966951469 48.387065612573856
  endloop
endfacet
facet normal 2.3723924345577743e-15 -1.3948535440583298e-15 1.0
  outer loop
    vertex 86.26100895686726 187.2453966951469 48.387065612573856
    vertex 84.1904565960471 187.2453966951469 48.387065612573856
    vertex 85.22573277645718 187.1091000003032 48.387065612573856
  endloop
endfacet
facet normal -0.13052619222005066 -0.9914448613738106 -1.0732610276911972e-15
  outer loop
    vertex 84.1904565960471 187.2453966951469 48.387065612573856
    vertex 85.22573277645718 187.1091000003032 47.886477612573856
    vertex 85.22573277645718 187.1091000003032 48.387065612573856
  endloop
endfacet
facet normal -0.13052619222005066 -0.9914448613738106 -1.0732610276911972e-15
  outer loop
    vertex 85.22573277645718 187.1091000003032 47.886477612573856
    vertex 84.1904565960471 187.2453966951469 48.387065612573856
    vertex 84.1904565960471 187.2453966951469 47.886477612573856
  endloop
endfacet
facet normal -0.3826834323650899 -0.9238795325112866 -3.808013604327807e-16
  outer loop
    vertex 83.22573277645718 187.64499838516542 48.38706561257387
    vertex 84.1904565960471 187.2453966951469 47.886477612573856
    vertex 84.1904565960471 187.2453966951469 48.387065612573856
  endloop
endfacet
facet normal -0.3826834323650899 -0.9238795325112866 -3.808013604327807e-16
  outer loop
    vertex 84.1904565960471 187.2453966951469 47.886477612573856
    vertex 83.22573277645718 187.64499838516542 48.38706561257387
    vertex 83.22573277645718 187.64499838516542 47.88647761257386
  endloop
endfacet
facet normal -0.6087614290087116 -0.7933533402912422 3.376092902350931e-16
  outer loop
    vertex 82.39730565171098 188.28067287555697 48.38706561257386
    vertex 83.22573277645718 187.64499838516542 47.88647761257386
    vertex 83.22573277645718 187.64499838516542 48.38706561257387
  endloop
endfacet
facet normal -0.6087614290087116 -0.7933533402912422 3.376092902350931e-16
  outer loop
    vertex 83.22573277645718 187.64499838516542 47.88647761257386
    vertex 82.39730565171098 188.28067287555697 48.38706561257386
    vertex 82.39730565171098 188.28067287555697 47.88647761257386
  endloop
endfacet
facet normal -0.7933533402912365 -0.6087614290087192 1.0330124256992431e-15
  outer loop
    vertex 81.76163116131941 189.10910000030316 47.88647761257387
    vertex 82.39730565171098 188.28067287555697 48.38706561257386
    vertex 81.76163116131941 189.10910000030316 48.38706561257387
  endloop
endfacet
facet normal -0.7933533402912365 -0.6087614290087192 1.0330124256992431e-15
  outer loop
    vertex 82.39730565171098 188.28067287555697 48.38706561257386
    vertex 81.76163116131941 189.10910000030316 47.88647761257387
    vertex 82.39730565171098 188.28067287555697 47.88647761257386
  endloop
endfacet
facet normal -0.9238795325112871 -0.38268343236508884 1.6580174714857001e-15
  outer loop
    vertex 81.3620294713009 190.07382381989308 48.38706561257386
    vertex 81.76163116131941 189.10910000030316 47.88647761257387
    vertex 81.76163116131941 189.10910000030316 48.38706561257387
  endloop
endfacet
facet normal -0.9238795325112871 -0.38268343236508884 1.6580174714857001e-15
  outer loop
    vertex 81.76163116131941 189.10910000030316 47.88647761257387
    vertex 81.3620294713009 190.07382381989308 48.38706561257386
    vertex 81.36202947130089 190.07382381989308 47.88647761257386
  endloop
endfacet
facet normal -0.9914448613738102 -0.13052619222005366 2.170031366593828e-15
  outer loop
    vertex 81.22573277645716 191.10910000030316 47.88647761257387
    vertex 81.3620294713009 190.07382381989308 48.38706561257386
    vertex 81.22573277645716 191.10910000030316 48.38706561257386
  endloop
endfacet
facet normal -0.9914448613738102 -0.13052619222005366 2.170031366593828e-15
  outer loop
    vertex 81.3620294713009 190.07382381989308 48.38706561257386
    vertex 81.22573277645716 191.10910000030316 47.88647761257387
    vertex 81.36202947130089 190.07382381989308 47.88647761257386
  endloop
endfacet
facet normal -0.9914448613738106 0.13052619222005066 2.5341612102149862e-15
  outer loop
    vertex 81.36202947130089 192.14437618071324 47.88647761257387
    vertex 81.22573277645716 191.10910000030316 48.38706561257386
    vertex 81.36202947130089 192.14437618071324 48.38706561257387
  endloop
endfacet
facet normal -0.9914448613738106 0.13052619222005066 2.5341612102149862e-15
  outer loop
    vertex 81.22573277645716 191.10910000030316 48.38706561257386
    vertex 81.36202947130089 192.14437618071324 47.88647761257387
    vertex 81.22573277645716 191.10910000030316 47.88647761257387
  endloop
endfacet
facet normal 0.7933533402912422 -0.6087614290087116 -2.7312784991768974e-15
  outer loop
    vertex 88.05415990120338 188.280672875557 47.88647761257385
    vertex 88.68983439159493 189.1091000003032 48.38706561257385
    vertex 88.05415990120338 188.280672875557 48.38706561257385
  endloop
endfacet
facet normal 0.7933533402912422 -0.6087614290087116 -2.7312784991768974e-15
  outer loop
    vertex 88.68983439159493 189.1091000003032 48.38706561257385
    vertex 88.05415990120338 188.280672875557 47.88647761257385
    vertex 88.68983439159493 189.1091000003032 47.88647761257385
  endloop
endfacet
facet normal 0.9238795325112866 -0.3826834323650899 -2.7255921552594017e-15
  outer loop
    vertex 88.68983439159493 189.1091000003032 47.88647761257385
    vertex 89.08943608161346 190.0738238198931 48.387065612573856
    vertex 88.68983439159493 189.1091000003032 48.38706561257385
  endloop
endfacet
facet normal 0.9238795325112866 -0.3826834323650899 -2.7255921552594017e-15
  outer loop
    vertex 89.08943608161346 190.0738238198931 48.387065612573856
    vertex 88.68983439159493 189.1091000003032 47.88647761257385
    vertex 89.08943608161344 190.0738238198931 47.88647761257385
  endloop
endfacet
facet normal 0.6087614290087192 -0.7933533402912365 -2.5508327270266105e-15
  outer loop
    vertex 87.22573277645718 187.64499838516542 48.387065612573856
    vertex 88.05415990120338 188.280672875557 47.88647761257385
    vertex 88.05415990120338 188.280672875557 48.38706561257385
  endloop
endfacet
facet normal 0.6087614290087192 -0.7933533402912365 -2.5508327270266105e-15
  outer loop
    vertex 88.05415990120338 188.280672875557 47.88647761257385
    vertex 87.22573277645718 187.64499838516542 48.387065612573856
    vertex 87.22573277645718 187.64499838516542 47.88647761257386
  endloop
endfacet
facet normal 0.38268343236508884 -0.9238795325112871 -2.1965519199798606e-15
  outer loop
    vertex 86.26100895686726 187.2453966951469 48.387065612573856
    vertex 87.22573277645718 187.64499838516542 47.88647761257386
    vertex 87.22573277645718 187.64499838516542 48.387065612573856
  endloop
endfacet
facet normal 0.38268343236508884 -0.9238795325112871 -2.1965519199798606e-15
  outer loop
    vertex 87.22573277645718 187.64499838516542 47.88647761257386
    vertex 86.26100895686726 187.2453966951469 48.387065612573856
    vertex 86.26100895686726 187.2453966951469 47.88647761257385
  endloop
endfacet
facet normal 0.13052619222005366 -0.9914448613738102 -1.692579729560168e-15
  outer loop
    vertex 85.22573277645718 187.1091000003032 48.387065612573856
    vertex 86.26100895686726 187.2453966951469 47.88647761257385
    vertex 86.26100895686726 187.2453966951469 48.387065612573856
  endloop
endfacet
facet normal 0.13052619222005366 -0.9914448613738102 -1.692579729560168e-15
  outer loop
    vertex 86.26100895686726 187.2453966951469 47.88647761257385
    vertex 85.22573277645718 187.1091000003032 48.387065612573856
    vertex 85.22573277645718 187.1091000003032 47.886477612573856
  endloop
endfacet
facet normal 0.9914448613738104 0.13052619222005227 -2.1700313665938304e-15
  outer loop
    vertex 89.22573277645716 191.1091000003032 47.886477612573856
    vertex 89.08943608161344 192.1443761807133 48.387065612573856
    vertex 89.22573277645716 191.1091000003032 48.387065612573856
  endloop
endfacet
facet normal 0.9914448613738104 0.13052619222005227 -2.1700313665938304e-15
  outer loop
    vertex 89.08943608161344 192.1443761807133 48.387065612573856
    vertex 89.22573277645716 191.1091000003032 47.886477612573856
    vertex 89.08943608161344 192.1443761807133 47.886477612573856
  endloop
endfacet
facet normal 0.9914448613738106 -0.13052619222005066 -2.5341612102149862e-15
  outer loop
    vertex 89.08943608161344 190.0738238198931 47.88647761257385
    vertex 89.22573277645716 191.1091000003032 48.387065612573856
    vertex 89.08943608161346 190.0738238198931 48.387065612573856
  endloop
endfacet
facet normal 0.9914448613738106 -0.13052619222005066 -2.5341612102149862e-15
  outer loop
    vertex 89.22573277645716 191.1091000003032 48.387065612573856
    vertex 89.08943608161344 190.0738238198931 47.88647761257385
    vertex 89.22573277645716 191.1091000003032 47.886477612573856
  endloop
endfacet
facet normal -0.38268343236509267 0.9238795325112855 2.1965519199798673e-15
  outer loop
    vertex 83.22573277645716 194.57320161544092 47.88647761257387
    vertex 84.19045659604706 194.97280330545945 48.38706561257386
    vertex 84.19045659604706 194.97280330545945 47.88647761257387
  endloop
endfacet
facet normal -0.38268343236509267 0.9238795325112855 2.1965519199798673e-15
  outer loop
    vertex 84.19045659604706 194.97280330545945 48.38706561257386
    vertex 83.22573277645716 194.57320161544092 47.88647761257387
    vertex 83.22573277645716 194.57320161544092 48.38706561257387
  endloop
endfacet
facet normal 0.9238795325112855 0.38268343236509267 -1.658017471485691e-15
  outer loop
    vertex 89.08943608161344 192.1443761807133 47.886477612573856
    vertex 88.68983439159493 193.1091000003032 48.387065612573856
    vertex 89.08943608161344 192.1443761807133 48.387065612573856
  endloop
endfacet
facet normal 0.9238795325112855 0.38268343236509267 -1.658017471485691e-15
  outer loop
    vertex 88.68983439159493 193.1091000003032 48.387065612573856
    vertex 89.08943608161344 192.1443761807133 47.886477612573856
    vertex 88.68983439159493 193.1091000003032 47.88647761257386
  endloop
endfacet
facet normal -0.9238795325112866 0.3826834323650899 2.7255921552594017e-15
  outer loop
    vertex 81.76163116131941 193.10910000030316 47.88647761257388
    vertex 81.36202947130089 192.14437618071324 48.38706561257387
    vertex 81.76163116131941 193.10910000030316 48.38706561257388
  endloop
endfacet
facet normal -0.9238795325112866 0.3826834323650899 2.7255921552594017e-15
  outer loop
    vertex 81.36202947130089 192.14437618071324 48.38706561257387
    vertex 81.76163116131941 193.10910000030316 47.88647761257388
    vertex 81.36202947130089 192.14437618071324 47.88647761257387
  endloop
endfacet
facet normal -0.7933533402912383 0.6087614290087168 2.7312784991768954e-15
  outer loop
    vertex 82.39730565171097 193.93752712504934 47.88647761257388
    vertex 81.76163116131941 193.10910000030316 48.38706561257388
    vertex 82.39730565171097 193.93752712504934 48.38706561257388
  endloop
endfacet
facet normal -0.7933533402912383 0.6087614290087168 2.7312784991768954e-15
  outer loop
    vertex 81.76163116131941 193.10910000030316 48.38706561257388
    vertex 82.39730565171097 193.93752712504934 47.88647761257388
    vertex 81.76163116131941 193.10910000030316 47.88647761257388
  endloop
endfacet
facet normal -0.608761429008726 0.7933533402912313 2.5508327270266195e-15
  outer loop
    vertex 82.39730565171097 193.93752712504934 47.88647761257388
    vertex 83.22573277645716 194.57320161544092 48.38706561257387
    vertex 83.22573277645716 194.57320161544092 47.88647761257387
  endloop
endfacet
facet normal -0.608761429008726 0.7933533402912313 2.5508327270266195e-15
  outer loop
    vertex 83.22573277645716 194.57320161544092 48.38706561257387
    vertex 82.39730565171097 193.93752712504934 47.88647761257388
    vertex 82.39730565171097 193.93752712504934 48.38706561257388
  endloop
endfacet
facet normal -0.13052619222005227 0.9914448613738104 1.6925797295601651e-15
  outer loop
    vertex 84.19045659604706 194.97280330545945 47.88647761257387
    vertex 85.22573277645715 195.1091000003032 48.38706561257386
    vertex 85.22573277645715 195.1091000003032 47.88647761257386
  endloop
endfacet
facet normal -0.13052619222005227 0.9914448613738104 1.6925797295601651e-15
  outer loop
    vertex 85.22573277645715 195.1091000003032 48.38706561257386
    vertex 84.19045659604706 194.97280330545945 47.88647761257387
    vertex 84.19045659604706 194.97280330545945 48.38706561257386
  endloop
endfacet
facet normal 0.9914448613738096 0.13052619222005726 -2.0269798740734246e-15
  outer loop
    vertex 83.68025145439466 190.6949895281391 47.88647761257386
    vertex 83.62573277645718 191.10910000030316 55.88647761257387
    vertex 83.68025145439469 190.6949895281391 55.88647761257387
  endloop
endfacet
facet normal 0.9914448613738096 0.13052619222005726 -2.0269798740734246e-15
  outer loop
    vertex 83.62573277645718 191.10910000030316 55.88647761257387
    vertex 83.68025145439466 190.6949895281391 47.88647761257386
    vertex 83.62573277645717 191.10910000030316 47.88647761257386
  endloop
endfacet
facet normal 0.9238795325112892 0.38268343236508406 -1.2397325386589787e-15
  outer loop
    vertex 83.84009213040206 190.30910000030318 47.88647761257386
    vertex 83.68025145439469 190.6949895281391 55.88647761257387
    vertex 83.84009213040208 190.30910000030315 55.88647761257387
  endloop
endfacet
facet normal 0.9238795325112892 0.38268343236508406 -1.2397325386589787e-15
  outer loop
    vertex 83.68025145439469 190.6949895281391 55.88647761257387
    vertex 83.84009213040206 190.30910000030318 47.88647761257386
    vertex 83.68025145439466 190.6949895281391 47.88647761257386
  endloop
endfacet
facet normal 0.7933533402912167 0.6087614290087447 -3.6617676900872287e-16
  outer loop
    vertex 84.0943619265587 189.9777291504047 47.886477612573856
    vertex 83.84009213040208 190.30910000030315 55.88647761257387
    vertex 84.09436192655872 189.97772915040468 55.88647761257387
  endloop
endfacet
facet normal 0.7933533402912167 0.6087614290087447 -3.6617676900872287e-16
  outer loop
    vertex 83.84009213040208 190.30910000030315 55.88647761257387
    vertex 84.0943619265587 189.9777291504047 47.886477612573856
    vertex 83.84009213040206 190.30910000030318 47.88647761257386
  endloop
endfacet
facet normal 0.6087614290087083 0.7933533402912445 5.329693146277141e-16
  outer loop
    vertex 84.0943619265587 189.9777291504047 47.886477612573856
    vertex 84.4257327764572 189.72345935424806 55.886477612573856
    vertex 84.42573277645718 189.7234593542481 47.886477612573856
  endloop
endfacet
facet normal 0.6087614290087083 0.7933533402912445 5.329693146277141e-16
  outer loop
    vertex 84.4257327764572 189.72345935424806 55.886477612573856
    vertex 84.0943619265587 189.9777291504047 47.886477612573856
    vertex 84.09436192655872 189.97772915040468 55.88647761257387
  endloop
endfacet
facet normal 0.3826834323651545 0.92387953251126 1.393043858243714e-15
  outer loop
    vertex 84.42573277645718 189.7234593542481 47.886477612573856
    vertex 84.81162230429315 189.56361867824063 55.886477612573856
    vertex 84.81162230429314 189.56361867824066 47.88647761257386
  endloop
endfacet
facet normal 0.3826834323651545 0.92387953251126 1.393043858243714e-15
  outer loop
    vertex 84.81162230429315 189.56361867824063 55.886477612573856
    vertex 84.42573277645718 189.7234593542481 47.886477612573856
    vertex 84.4257327764572 189.72345935424806 55.886477612573856
  endloop
endfacet
facet normal 0.1305261922200082 0.9914448613738162 2.16011591769915e-15
  outer loop
    vertex 84.81162230429314 189.56361867824066 47.88647761257386
    vertex 85.22573277645719 189.50910000030316 55.886477612573856
    vertex 85.22573277645718 189.50910000030316 47.88647761257386
  endloop
endfacet
facet normal 0.1305261922200082 0.9914448613738162 2.16011591769915e-15
  outer loop
    vertex 85.22573277645719 189.50910000030316 55.886477612573856
    vertex 84.81162230429314 189.56361867824066 47.88647761257386
    vertex 84.81162230429315 189.56361867824063 55.886477612573856
  endloop
endfacet
facet normal -0.1305261922200112 0.9914448613738157 2.7788560767769674e-15
  outer loop
    vertex 85.22573277645718 189.50910000030316 47.88647761257386
    vertex 85.63984324862122 189.56361867824063 55.88647761257387
    vertex 85.6398432486212 189.56361867824066 47.88647761257386
  endloop
endfacet
facet normal -0.1305261922200112 0.9914448613738157 2.7788560767769674e-15
  outer loop
    vertex 85.63984324862122 189.56361867824063 55.88647761257387
    vertex 85.22573277645718 189.50910000030316 47.88647761257386
    vertex 85.22573277645719 189.50910000030316 55.886477612573856
  endloop
endfacet
facet normal -0.3826834323651573 0.9238795325112589 3.2091276305167936e-15
  outer loop
    vertex 85.6398432486212 189.56361867824066 47.88647761257386
    vertex 86.02573277645719 189.72345935424806 55.88647761257387
    vertex 86.02573277645718 189.7234593542481 47.88647761257385
  endloop
endfacet
facet normal -0.3826834323651573 0.9238795325112589 3.2091276305167936e-15
  outer loop
    vertex 86.02573277645719 189.72345935424806 55.88647761257387
    vertex 85.6398432486212 189.56361867824066 47.88647761257386
    vertex 85.63984324862122 189.56361867824063 55.88647761257387
  endloop
endfacet
facet normal -0.6087614290087164 0.7933533402912384 2.8463013664354238e-15
  outer loop
    vertex 86.02573277645718 189.7234593542481 47.88647761257385
    vertex 86.35710362635565 189.9777291504047 55.88647761257387
    vertex 86.35710362635564 189.9777291504047 47.88647761257385
  endloop
endfacet
facet normal -0.6087614290087164 0.7933533402912384 2.8463013664354238e-15
  outer loop
    vertex 86.35710362635565 189.9777291504047 55.88647761257387
    vertex 86.02573277645718 189.7234593542481 47.88647761257385
    vertex 86.02573277645719 189.72345935424806 55.88647761257387
  endloop
endfacet
facet normal -0.99144486137381 0.13052619222005427 2.4878628422033915e-15
  outer loop
    vertex 86.82573277645719 191.10910000030316 55.886477612573856
    vertex 86.77121409851966 190.6949895281391 47.88647761257385
    vertex 86.77121409851969 190.6949895281391 55.88647761257387
  endloop
endfacet
facet normal -0.99144486137381 0.13052619222005427 2.4878628422033915e-15
  outer loop
    vertex 86.77121409851966 190.6949895281391 47.88647761257385
    vertex 86.82573277645719 191.10910000030316 55.886477612573856
    vertex 86.82573277645716 191.10910000030316 47.886477612573856
  endloop
endfacet
facet normal -0.9914448613738096 -0.13052619222005726 2.216433107747141e-15
  outer loop
    vertex 86.77121409851966 191.5232104724672 47.886477612573856
    vertex 86.82573277645719 191.10910000030316 55.886477612573856
    vertex 86.77121409851969 191.5232104724672 55.886477612573856
  endloop
endfacet
facet normal -0.9914448613738096 -0.13052619222005726 2.216433107747141e-15
  outer loop
    vertex 86.82573277645719 191.10910000030316 55.886477612573856
    vertex 86.77121409851966 191.5232104724672 47.886477612573856
    vertex 86.82573277645716 191.10910000030316 47.886477612573856
  endloop
endfacet
facet normal -0.9238795325112878 -0.3826834323650873 1.5162991009774586e-15
  outer loop
    vertex 86.61137342251227 191.90910000030317 47.886477612573856
    vertex 86.77121409851969 191.5232104724672 55.886477612573856
    vertex 86.61137342251229 191.90910000030314 55.886477612573856
  endloop
endfacet
facet normal -0.9238795325112878 -0.3826834323650873 1.5162991009774586e-15
  outer loop
    vertex 86.77121409851969 191.5232104724672 55.886477612573856
    vertex 86.61137342251227 191.90910000030317 47.886477612573856
    vertex 86.77121409851966 191.5232104724672 47.886477612573856
  endloop
endfacet
facet normal -0.7933533402912167 -0.6087614290087447 3.6686756303478343e-16
  outer loop
    vertex 86.35710362635564 192.24047085020163 47.886477612573856
    vertex 86.61137342251229 191.90910000030314 55.886477612573856
    vertex 86.35710362635565 192.2404708502016 55.88647761257387
  endloop
endfacet
facet normal -0.7933533402912167 -0.6087614290087447 3.6686756303478343e-16
  outer loop
    vertex 86.61137342251229 191.90910000030314 55.886477612573856
    vertex 86.35710362635564 192.24047085020163 47.886477612573856
    vertex 86.61137342251227 191.90910000030317 47.886477612573856
  endloop
endfacet
facet normal -0.6087614290087083 -0.7933533402912445 -5.329693146277141e-16
  outer loop
    vertex 86.02573277645718 192.49474064635822 55.88647761257387
    vertex 86.35710362635564 192.24047085020163 47.886477612573856
    vertex 86.35710362635565 192.2404708502016 55.88647761257387
  endloop
endfacet
facet normal -0.6087614290087083 -0.7933533402912445 -5.329693146277141e-16
  outer loop
    vertex 86.35710362635564 192.24047085020163 47.886477612573856
    vertex 86.02573277645718 192.49474064635822 55.88647761257387
    vertex 86.02573277645716 192.49474064635825 47.886477612573856
  endloop
endfacet
facet normal -0.3826834323651545 -0.92387953251126 -1.3927106455180288e-15
  outer loop
    vertex 85.6398432486212 192.65458132236566 55.88647761257387
    vertex 86.02573277645716 192.49474064635825 47.886477612573856
    vertex 86.02573277645718 192.49474064635822 55.88647761257387
  endloop
endfacet
facet normal -0.3826834323651545 -0.92387953251126 -1.3927106455180288e-15
  outer loop
    vertex 86.02573277645716 192.49474064635825 47.886477612573856
    vertex 85.6398432486212 192.65458132236566 55.88647761257387
    vertex 85.6398432486212 192.6545813223657 47.886477612573856
  endloop
endfacet
facet normal -0.1305261922200082 -0.9914448613738162 -2.1598886123882613e-15
  outer loop
    vertex 85.22573277645718 192.70910000030315 55.88647761257387
    vertex 85.6398432486212 192.6545813223657 47.886477612573856
    vertex 85.6398432486212 192.65458132236566 55.88647761257387
  endloop
endfacet
facet normal -0.1305261922200082 -0.9914448613738162 -2.1598886123882613e-15
  outer loop
    vertex 85.6398432486212 192.6545813223657 47.886477612573856
    vertex 85.22573277645718 192.70910000030315 55.88647761257387
    vertex 85.22573277645716 192.70910000030315 47.88647761257386
  endloop
endfacet
facet normal 0.13052619222001116 -0.9914448613738157 -2.779093661601583e-15
  outer loop
    vertex 84.81162230429314 192.65458132236566 55.88647761257387
    vertex 85.22573277645716 192.70910000030315 47.88647761257386
    vertex 85.22573277645718 192.70910000030315 55.88647761257387
  endloop
endfacet
facet normal 0.13052619222001116 -0.9914448613738157 -2.779093661601583e-15
  outer loop
    vertex 85.22573277645716 192.70910000030315 47.88647761257386
    vertex 84.81162230429314 192.65458132236566 55.88647761257387
    vertex 84.81162230429314 192.6545813223657 47.88647761257386
  endloop
endfacet
facet normal 0.3826834323651573 -0.9238795325112589 -3.2097940559681644e-15
  outer loop
    vertex 84.42573277645718 192.49474064635822 55.88647761257387
    vertex 84.81162230429314 192.6545813223657 47.88647761257386
    vertex 84.81162230429314 192.65458132236566 55.88647761257387
  endloop
endfacet
facet normal 0.3826834323651573 -0.9238795325112589 -3.2097940559681644e-15
  outer loop
    vertex 84.81162230429314 192.6545813223657 47.88647761257386
    vertex 84.42573277645718 192.49474064635822 55.88647761257387
    vertex 84.42573277645717 192.49474064635825 47.88647761257386
  endloop
endfacet
facet normal 0.6087614290087107 -0.7933533402912429 -3.419291072292079e-15
  outer loop
    vertex 84.0943619265587 192.2404708502016 55.88647761257387
    vertex 84.42573277645717 192.49474064635825 47.88647761257386
    vertex 84.42573277645718 192.49474064635822 55.88647761257387
  endloop
endfacet
facet normal 0.6087614290087107 -0.7933533402912429 -3.419291072292079e-15
  outer loop
    vertex 84.42573277645717 192.49474064635825 47.88647761257386
    vertex 84.0943619265587 192.2404708502016 55.88647761257387
    vertex 84.09436192655869 192.24047085020163 47.88647761257386
  endloop
endfacet
facet normal 0.7933533402912185 -0.6087614290087423 -3.400234415464646e-15
  outer loop
    vertex 83.84009213040206 191.90910000030317 47.88647761257386
    vertex 84.0943619265587 192.2404708502016 55.88647761257387
    vertex 83.84009213040207 191.90910000030314 55.88647761257387
  endloop
endfacet
facet normal 0.7933533402912185 -0.6087614290087423 -3.400234415464646e-15
  outer loop
    vertex 84.0943619265587 192.2404708502016 55.88647761257387
    vertex 83.84009213040206 191.90910000030317 47.88647761257386
    vertex 84.09436192655869 192.24047085020163 47.88647761257386
  endloop
endfacet
endsolid bcn3dplus_mk8_extruder_02
